#!OML:ASF X:\für Bonn\!DataBase\2005_08_12_Daniel\c3d\Daniel.ASF
:FULLY-SPECIFIED
:DEGREES
95
root 4.20217 16.7179 -2.97404 -167.103 -79.7504 141.902
lowerback 31.0373 -3.16432 4.73256
upperback 11.444 -4.64828 -7.18418
thorax -4.5763 -2.65668 -8.56842
lowerneck 7.56266 12.6829 -12.6583
upperneck 27.1324 15.0911 0.223972
head 6.33784 5.3194 2.33141
rclavicle -2.3059e-014 -8.74653e-015
rhumerus -56.2275 -4.11893 -80.7622
rradius 19.7255
rwrist 40.5617
rhand -7.36266 22.1312
rfingers 7.12502
rthumb 18.522 -7.00705
lclavicle -2.3059e-014 -8.74653e-015
lhumerus -15.7459 -11.1306 73.005
lradius 130.796
lwrist 16.0439
lhand -17.8282 -25.9044
lfingers 7.12502
lthumb 8.43617 3.90707
rfemur 3.59902 -1.55553 17.4936
rtibia 44.3913
rfoot -27.1339 -8.61278
rtoes -6.86928
lfemur -51.6928 11.8934 -16.8621
ltibia 113.307
lfoot 28.0532 -1.9005
ltoes -16.1373
96
root 4.20936 16.7146 -2.9799 -166.657 -80.2835 142.161
lowerback 30.2767 -3.32583 4.78553
upperback 11.2435 -4.77803 -6.93885
thorax -4.49098 -2.70237 -8.32107
lowerneck 7.6776 12.7255 -12.5481
upperneck 26.9766 15.1637 0.0304272
head 6.29039 5.36422 2.24319
rclavicle -6.36111e-015 4.21423e-014
rhumerus -56.4424 -3.96589 -80.2777
rradius 19.8291
rwrist 40.5709
rhand -7.14571 21.9577
rfingers 7.12502
rthumb 18.7307 -7.16053
lclavicle -6.36111e-015 4.21423e-014
lhumerus -15.5607 -11.263 72.7026
lradius 130.691
lwrist 16.1115
lhand -17.8963 -25.7993
lfingers 7.12502
lthumb 8.37045 4.01483
rfemur 2.79651 -1.81031 17.8396
rtibia 44.566
rfoot -27.2904 -8.8282
rtoes -6.71216
lfemur -49.43 10.6754 -16.8315
ltibia 112.431
lfoot 26.307 -1.63659
ltoes -16.8803
97
root 4.21593 16.7096 -2.9844 -166.114 -80.7897 142.279
lowerback 29.3708 -3.45853 4.85877
upperback 11.2036 -4.91002 -6.45677
thorax -4.38607 -2.7716 -8.41222
lowerneck 7.75886 12.7425 -12.3406
upperneck 26.847 15.2171 -0.170446
head 6.26392 5.40712 2.14279
rclavicle -5.1684e-015 -2.06736e-014
rhumerus -56.5983 -4.06458 -79.6414
rradius 19.8866
rwrist 40.6413
rhand -7.02394 21.8444
rfingers 7.12502
rthumb 18.8478 -7.26244
lclavicle -5.1684e-015 -2.06736e-014
lhumerus -15.4122 -11.4267 72.3919
lradius 130.598
lwrist 16.1278
lhand -17.9652 -25.7312
lfingers 7.12502
lthumb 8.30391 4.08558
rfemur 2.01049 -2.0285 18.1512
rtibia 44.8005
rfoot -27.4803 -9.04509
rtoes -6.59883
lfemur -47.1953 9.41344 -16.8552
ltibia 111.42
lfoot 24.5032 -1.17472
ltoes -17.1663
98
root 4.22224 16.7023 -2.9875 -165.772 -81.2739 142.578
lowerback 28.6963 -3.58553 4.90786
upperback 11.0078 -5.00592 -6.23006
thorax -4.3016 -2.80108 -8.16042
lowerneck 7.8194 12.7523 -12.1424
upperneck 26.7073 15.2704 -0.397861
head 6.23947 5.44843 2.03682
rclavicle -2.16675e-014 1.19271e-014
rhumerus -56.6886 -4.11463 -79.0074
rradius 19.9662
rwrist 40.546
rhand -7.11785 21.8866
rfingers 7.12502
rthumb 18.7575 -7.22905
lclavicle -2.16675e-014 1.19271e-014
lhumerus -15.3109 -11.5419 72.1669
lradius 130.519
lwrist 16.1143
lhand -18.0152 -25.6924
lfingers 7.12502
lthumb 8.25563 4.1263
rfemur 1.20578 -2.22539 18.478
rtibia 45.0987
rfoot -27.6908 -9.25156
rtoes -6.36548
lfemur -45.0748 8.18794 -16.8578
ltibia 110.311
lfoot 22.7629 -0.581326
ltoes -17.3571
99
root 4.22754 16.6916 -2.98967 -165.342 -81.7441 142.754
lowerback 28.0765 -3.70587 4.96008
upperback 10.7959 -5.09692 -6.02675
thorax -4.25776 -2.83 -7.94041
lowerneck 7.91912 12.7536 -11.8475
upperneck 26.5695 15.3143 -0.660349
head 6.21917 5.49151 1.9044
rclavicle 1.98785e-016 1.74931e-014
rhumerus -56.7668 -4.2619 -78.3472
rradius 20.034
rwrist 40.4598
rhand -7.41468 22.1567
rfingers 7.12502
rthumb 18.472 -6.98626
lclavicle 1.98785e-016 1.74931e-014
lhumerus -15.2848 -11.6961 71.9587
lradius 130.443
lwrist 16.0771
lhand -18.1108 -25.6582
lfingers 7.12502
lthumb 8.16338 4.16407
rfemur 0.425259 -2.39692 18.7756
rtibia 45.4084
rfoot -27.9056 -9.41946
rtoes -6.17997
lfemur -43.0871 7.00281 -16.8852
ltibia 109.111
lfoot 21.0682 0.10526
ltoes -17.3269
100
root 4.23295 16.6791 -2.99125 -164.849 -82.2126 142.833
lowerback 27.4962 -3.83203 4.99117
upperback 10.5877 -5.20444 -5.82183
thorax -4.22591 -2.86889 -7.70233
lowerneck 8.0445 12.7697 -11.5832
upperneck 26.3803 15.3707 -0.91887
head 6.17537 5.54282 1.77416
rclavicle 6.0033e-014 2.94201e-014
rhumerus -56.7941 -4.39931 -77.6772
rradius 20.1249
rwrist 40.3323
rhand -7.68568 22.361
rfingers 7.12502
rthumb 18.2113 -6.80654
lclavicle 6.0033e-014 2.94201e-014
lhumerus -15.3255 -11.7921 71.8007
lradius 130.38
lwrist 16.0238
lhand -18.1551 -25.7032
lfingers 7.12502
lthumb 8.12065 4.12076
rfemur -0.311459 -2.57377 19.0563
rtibia 45.6953
rfoot -28.1117 -9.60729
rtoes -5.92072
lfemur -41.2111 5.84036 -16.9334
ltibia 107.82
lfoot 19.3342 0.888431
ltoes -17.0429
101
root 4.23779 16.6732 -2.99221 -164.103 -82.6642 142.616
lowerback 26.9579 -3.95124 4.99612
upperback 10.3898 -5.31451 -5.62774
thorax -4.19848 -2.91079 -7.46218
lowerneck 8.21264 12.7901 -11.3332
upperneck 26.1325 15.4251 -1.18648
head 6.10596 5.59687 1.63865
rclavicle -1.8487e-014 3.1408e-014
rhumerus -56.7626 -4.66327 -76.9118
rradius 20.2027
rwrist 40.3698
rhand -7.94773 22.5233
rfingers 7.12502
rthumb 17.9591 -6.66752
lclavicle -1.8487e-014 3.1408e-014
lhumerus -15.3756 -11.8657 71.651
lradius 130.312
lwrist 16.0104
lhand -18.2256 -25.8061
lfingers 7.12502
lthumb 8.05262 4.02046
rfemur -0.972984 -2.75209 19.2819
rtibia 45.9275
rfoot -28.2866 -9.78024
rtoes -5.76008
lfemur -39.3533 4.67416 -17.0377
ltibia 106.376
lfoot 17.6202 1.81082
ltoes -16.1573
